<svg width="148" height="34" viewBox="0 0 148 34" fill="none" xmlns="http://www.w3.org/2000/svg">
<rect width="148" height="34" fill="#1E1E1E"/>
<rect width="148" height="34" fill="#2D314D"/>
<path d="M40.754 22.847C43.606 22.847 45.906 21.225 46.706 18.631H42.809C42.433 19.296 41.669 19.697 40.754 19.697C39.517 19.697 38.689 19.023 38.434 17.719H46.874C46.925 17.367 46.955 17.025 46.955 16.682C46.955 13.347 44.418 10.732 40.754 10.732C37.186 10.732 34.579 13.296 34.579 16.781C34.579 20.254 37.207 22.847 40.754 22.847ZM43.098 15.55H38.502C38.819 14.421 39.612 13.801 40.754 13.801C41.935 13.801 42.754 14.413 43.098 15.55ZM54.044 22.846C55.364 22.846 56.544 22.412 57.474 21.658L57.81 22.462H60.837V11.093H57.918L57.518 11.973C56.578 11.198 55.383 10.751 54.044 10.751C50.568 10.751 48.083 13.256 48.083 16.777C48.083 20.31 50.568 22.847 54.044 22.847V22.846ZM54.568 19.379C53.101 19.379 52.023 18.271 52.023 16.786C52.023 15.311 53.092 14.203 54.568 14.203C56.034 14.203 57.112 15.311 57.112 16.786C57.112 18.271 56.034 19.379 54.568 19.379ZM67.691 22.846C70.711 22.846 72.716 21.292 72.716 18.916C72.716 16.033 70.329 15.66 68.533 15.341C67.453 15.148 66.583 14.997 66.583 14.351C66.583 13.824 67.005 13.513 67.633 13.513C68.343 13.513 68.83 13.85 68.83 14.576H72.497C72.453 12.273 70.577 10.733 67.681 10.733C64.769 10.733 62.827 12.203 62.827 14.483C62.827 17.24 65.164 17.772 66.927 18.057C68.019 18.238 68.879 18.425 68.879 19.081C68.879 19.668 68.336 19.961 67.763 19.961C67.021 19.961 66.443 19.578 66.443 18.747H62.673C62.709 21.21 64.592 22.847 67.691 22.847V22.846ZM75.791 26.704C78.727 26.704 80.135 25.447 81.668 21.968L86.432 11.105H82.226L79.977 17.368L77.565 11.105H73.31L78.008 21.535C77.478 22.949 77.025 23.339 75.528 23.339H74.45V26.704H75.791ZM94.295 22.846C97.795 22.846 100.268 20.331 100.268 16.798C100.268 13.265 97.796 10.75 94.295 10.75C93.2986 10.7422 92.3199 11.0138 91.47 11.534V7H87.6V22.474H90.497L90.867 21.63C91.79 22.401 92.969 22.846 94.295 22.846ZM93.772 19.379C92.305 19.379 91.227 18.271 91.227 16.799C91.227 15.313 92.305 14.205 93.772 14.205C95.238 14.205 96.316 15.313 96.316 16.798C96.316 18.271 95.229 19.379 93.772 19.379ZM107.37 22.846C108.69 22.846 109.87 22.412 110.8 21.658L111.136 22.462H114.163V11.093H111.245L110.844 11.973C109.905 11.198 108.709 10.751 107.37 10.751C103.894 10.751 101.41 13.256 101.41 16.777C101.41 20.31 103.894 22.847 107.37 22.847V22.846ZM107.894 19.379C106.427 19.379 105.349 18.271 105.349 16.786C105.349 15.311 106.419 14.203 107.894 14.203C109.361 14.203 110.439 15.311 110.439 16.786C110.439 18.271 109.361 19.379 107.894 19.379ZM120.547 22.474V16.403C120.547 14.956 121.249 14.103 122.47 14.103C123.456 14.103 123.953 14.76 123.953 16.083V22.473H127.868V15.543C127.868 12.646 126.135 10.77 123.495 10.77C122.025 10.77 120.762 11.335 119.915 12.278L119.378 11.106H116.631V22.475H120.547V22.474ZM134.295 22.474V17.666L137.143 22.474H141.759L137.857 16.524L141.4 11.105H137.003L134.295 15.559V7H130.379V22.474H134.295Z" fill="white"/>
<path fill-rule="evenodd" clip-rule="evenodd" d="M13.802 7L3 26.704H8.986L19.789 7H13.802Z" fill="url(#paint0_linear_0_1)"/>
<path opacity="0.5" fill-rule="evenodd" clip-rule="evenodd" d="M21.171 7L10.368 26.704H16.354L27.157 7H21.171Z" fill="url(#paint1_linear_0_1)"/>
<path opacity="0.15" fill-rule="evenodd" clip-rule="evenodd" d="M28.539 7L17.737 26.704H23.723L34.525 7H28.539Z" fill="url(#paint2_linear_0_1)"/>
<defs>
<linearGradient id="paint0_linear_0_1" x1="1215.08" y1="6.99989" x2="51.4379" y2="1819.87" gradientUnits="userSpaceOnUse">
<stop stop-color="#33D35E"/>
<stop offset="1" stop-color="#2AB6D9"/>
</linearGradient>
<linearGradient id="paint1_linear_0_1" x1="1222.45" y1="6.99989" x2="58.8059" y2="1819.87" gradientUnits="userSpaceOnUse">
<stop stop-color="#33D35E"/>
<stop offset="1" stop-color="#2AB6D9"/>
</linearGradient>
<linearGradient id="paint2_linear_0_1" x1="1229.75" y1="6.99989" x2="66.0737" y2="1819.81" gradientUnits="userSpaceOnUse">
<stop stop-color="#33D35E"/>
<stop offset="1" stop-color="#2AB6D9"/>
</linearGradient>
</defs>
</svg>
